Music_SugarSweetNightmare:
	channel_count 3
	channel 1, Music_SugarSweetNightmare_Ch1
	channel 2, Music_SugarSweetNightmare_Ch2
	channel 3, Music_SugarSweetNightmare_Ch3

Music_SugarSweetNightmare_Ch1:
	tempo 114
	volume 7, 7
	stereo_panning FALSE, TRUE
	vibrato 18, 2, 3
	note_type 12, 8, 7
	transpose 2, 0
	octave 4
	rest 6
	note C#, 3
	octave 5
	rest 1
	note C#, 3
	octave 4
	rest 5
	note G#, 4
	octave 3
	note A_, 3
	octave 4
	rest 1
	note A_, 3
	rest 5
	note E_, 4
	note E_, 3
	rest 1
	note B_, 3
	rest 5
	note G#, 4
	octave 3
	note B_, 3
	octave 4
	rest 1
	note B_, 3
	rest 5
	note F#, 4
	octave 3
	note A_, 3
	octave 5
	rest 1
	note E_, 3
	octave 4
	rest 5
	note A_, 4
	octave 3
	note B_, 3
	octave 5
	rest 1
	note F#, 3
	octave 4
	rest 5
	note B_, 4
.main_loop
	note C#, 3
	octave 5
	rest 1
	note C#, 3
	rest 9
	note C#, 16
	octave 3
	note B_, 3
	octave 4
	rest 1
	note B_, 3
	octave 3
	rest 1
	note B_, 3
	octave 4
	rest 1
	note B_, 3
	octave 3
	rest 1
	note B_, 3
	octave 4
	rest 1
	note B_, 3
	octave 3
	rest 1
	note B_, 3
	octave 4
	rest 1
	note B_, 3
	octave 3
	rest 1
	note B_, 3
	octave 4
	rest 1
	note B_, 3
	octave 3
	rest 1
	note B_, 3
	octave 4
	rest 1
	note B_, 3
	octave 3
	rest 1
	note B_, 3
	octave 4
	rest 1
	note B_, 3
	octave 3
	rest 1
	note B_, 3
	octave 4
	rest 1
	note B_, 3
	octave 3
	rest 1
	note B_, 3
	octave 4
	rest 1
	note B_, 3
	octave 3
	rest 1
	note B_, 3
	octave 4
	rest 1
	note B_, 3
	octave 3
	rest 1
	note B_, 3
	octave 4
	rest 1
	note B_, 3
	octave 3
	rest 1
	note B_, 3
	octave 4
	rest 1
	note B_, 3
	octave 3
	rest 1
	note B_, 3
	octave 4
	rest 1
	note B_, 3
	octave 3
	rest 1
	note B_, 3
	octave 4
	rest 1
	note B_, 3
	octave 3
	rest 1
	note B_, 3
	octave 4
	rest 1
	note B_, 3
	octave 3
	rest 1
	note B_, 3
	octave 4
	rest 1
	note B_, 3
	octave 3
	rest 1
	note B_, 2
	octave 2
	note B_, 2
	octave 4
	rest 16
	rest 6
	note E_, 6
	octave 3
	note B_, 2
	note B_, 2
	rest 10
	note B_, 2
	octave 4
	rest 2
	note F#, 2
	rest 2
	note B_, 2
	rest 2
	note C_, 6
	octave 2
	note B_, 2
	octave 3
	note B_, 2
	octave 4
	rest 16
	rest 6
	note E_, 6
	octave 3
	note B_, 2
	octave 4
	note F#, 2
	rest 10
	note F#, 2
	rest 2
	note B_, 2
	octave 3
	rest 2
	note B_, 2
	octave 5
	rest 2
	note C_, 6
	octave 3
	note B_, 2
	octave 2
	note B_, 2
	octave 4
	rest 16
	rest 6
	note E_, 6
	octave 3
	note B_, 2
	note B_, 2
	rest 10
	note B_, 2
	octave 4
	rest 2
	note F#, 2
	rest 2
	note B_, 2
	rest 2
	note C_, 6
	octave 3
	note B_, 2
	note B_, 2
	octave 4
	rest 16
	rest 6
	note E_, 6
	octave 3
	note B_, 2
	octave 4
	note F#, 2
	rest 10
	note F#, 2
	rest 2
	note B_, 2
	rest 2
	note F#, 2
	octave 3
	note B_, 4
	octave 4
	note G#, 4
	note D_, 3
	octave 5
	rest 1
	note D_, 3
	octave 4
	rest 5
	note A_, 4
	octave 3
	note A#, 3
	octave 4
	rest 1
	note A#, 3
	rest 5
	note F_, 4
	note F_, 3
	octave 5
	rest 1
	note F_, 3
	rest 5
	note C_, 4
	octave 4
	note C_, 3
	octave 5
	rest 1
	note C_, 3
	octave 4
	rest 5
	note G_, 4
	note D#, 3
	octave 5
	rest 1
	note D#, 3
	octave 4
	rest 5
	note A#, 4
	octave 3
	note B_, 3
	octave 4
	rest 1
	note B_, 3
	rest 5
	note F#, 4
	note F#, 3
	octave 5
	rest 1
	note F#, 3
	rest 5
	note C#, 4
	octave 4
	note C#, 3
	octave 5
	rest 1
	note C#, 3
	octave 4
	rest 5
	note G#, 4
	octave 3
	note F#, 2
	note F#, 2
	octave 4
	note C#, 2
	octave 3
	note F#, 6
	note F#, 4
	octave 4
	rest 2
	note G#, 3
	octave 5
	rest 1
	note E_, 4
	note C#, 3
	octave 4
	rest 5
	note E_, 3
	octave 5
	rest 1
	note C#, 4
	octave 4
	note A_, 3
	rest 5
	note G#, 3
	octave 5
	rest 1
	note E_, 4
	octave 4
	note B_, 3
	rest 5
	note F#, 3
	octave 5
	rest 1
	note F#, 4
	octave 4
	note B_, 3
	rest 5
	note A_, 3
	octave 5
	rest 1
	note A_, 4
	note E_, 3
	octave 4
	rest 5
	note B_, 3
	octave 5
	rest 1
	note B_, 4
	note F#, 3
	octave 4
	rest 5
	note G#, 3
	octave 5
	rest 1
	note G#, 4
	note C#, 3
	octave 3
	rest 3
	note G#, 2
	note G#, 2
	octave 4
	note C#, 2
	octave 3
	note G#, 6
	note G#, 4
	octave 4
	note C#, 3
	octave 5
	rest 1
	note C#, 3
	octave 4
	rest 5
	note G#, 4
	octave 3
	note A_, 3
	octave 4
	rest 1
	note A_, 3
	rest 5
	note E_, 4
	note E_, 3
	rest 1
	note B_, 3
	rest 5
	note G#, 4
	octave 3
	note B_, 3
	octave 4
	rest 1
	note B_, 3
	rest 5
	note F#, 4
	octave 3
	note A_, 3
	octave 5
	rest 1
	note E_, 3
	octave 4
	rest 5
	note A_, 4
	octave 2
	note B_, 2
	note B_, 2
	note B_, 4
	octave 3
	rest 4
	note B_, 4
	sound_loop 0, .main_loop
	octave 4
	note C#, 2
	note C#, 2
	rest 2
	note C#, 2
	note C#, 2
	octave 2
	rest 2
	note C#, 2
	octave 3
	note C#, 2
	rest 2
	note C#, 2
	note C#, 2
	rest 2
	note C#, 4
	octave 2
	note B_, 4
	note B_, 16
	octave 3
	rest 12
	note F#, 4
	octave 4
	note E_, 16
	sound_ret

Music_SugarSweetNightmare_Ch2:
	stereo_panning TRUE, TRUE
	vibrato 18, 2, 5
	note_type 12, 10, 7
	transpose 2, 0
	octave 4
	rest 8
	note G#, 3
	octave 5
	rest 1
	note E_, 4
	note C#, 3
	octave 4
	rest 5
	note E_, 3
	octave 5
	rest 1
	note C#, 4
	octave 4
	note A_, 3
	rest 5
	note G#, 3
	octave 5
	rest 1
	note E_, 4
	octave 4
	note B_, 3
	rest 5
	note F#, 3
	octave 5
	rest 1
	note F#, 4
	octave 4
	note B_, 3
	rest 5
	note A_, 3
	octave 5
	rest 1
	note A_, 4
	note E_, 3
	octave 4
	rest 5
	note B_, 3
	octave 5
	rest 1
	note B_, 4
	note F#, 3
	octave 4
	rest 3
.main_loop
	rest 2
	note G#, 3
	octave 5
	rest 1
	note F#, 4
	note G#, 4
	note F#, 2
	octave 4
	note G#, 16
	rest 2
	note F#, 3
	rest 1
	note F#, 3
	rest 1
	note F#, 3
	rest 1
	note F#, 3
	rest 1
	note F#, 3
	rest 1
	note F#, 3
	rest 1
	note F#, 3
	rest 1
	note F#, 3
	rest 1
	note F#, 3
	rest 1
	note F#, 3
	rest 1
	note F#, 3
	rest 1
	note F#, 3
	rest 1
	note F#, 3
	rest 1
	note F#, 3
	rest 1
	note F#, 3
	rest 1
	note F#, 3
	rest 1
	note F#, 3
	rest 1
	note F#, 3
	rest 1
	note F#, 3
	rest 1
	note F#, 3
	rest 1
	note F#, 3
	rest 1
	note F#, 3
	rest 1
	note F#, 3
	rest 1
	note F#, 3
	rest 1
	note F#, 3
	rest 1
	note F#, 3
	rest 1
	note F#, 3
	rest 1
	note F#, 3
	rest 1
	note F#, 3
	rest 1
	note F#, 3
	rest 1
	note F#, 3
	rest 1
	note F#, 2
	octave 2
	note B_, 2
	octave 3
	note B_, 2
	rest 16
	rest 6
	note A_, 6
	octave 2
	note B_, 2
	note B_, 2
	octave 4
	rest 10
	note F#, 2
	rest 2
	note B_, 2
	octave 3
	rest 2
	note B_, 2
	octave 5
	rest 2
	note C_, 6
	octave 3
	note B_, 2
	octave 2
	note B_, 2
	octave 4
	rest 16
	rest 6
	note A_, 6
	note F#, 2
	octave 3
	note B_, 2
	rest 10
	note B_, 2
	octave 4
	rest 2
	note F#, 2
	rest 2
	note B_, 2
	rest 2
	note C_, 6
	octave 2
	note B_, 2
	octave 3
	note B_, 2
	rest 16
	rest 6
	note A_, 6
	octave 2
	note B_, 2
	note B_, 2
	octave 4
	rest 10
	note F#, 2
	rest 2
	note B_, 2
	octave 3
	rest 2
	note B_, 2
	octave 5
	rest 2
	note C_, 6
	octave 2
	note B_, 2
	note B_, 2
	octave 4
	rest 16
	rest 6
	note A_, 6
	note B_, 2
	octave 3
	note B_, 2
	rest 10
	note B_, 2
	octave 4
	rest 2
	note F#, 2
	octave 3
	rest 2
	note B_, 2
	octave 4
	note B_, 4
	octave 5
	note C#, 4
	octave 4
	rest 2
	note A_, 3
	octave 5
	rest 1
	note F_, 4
	note D_, 3
	octave 4
	rest 5
	note F_, 3
	octave 5
	rest 1
	note D_, 4
	octave 4
	note A#, 3
	octave 5
	rest 5
	note C_, 3
	rest 1
	note A_, 4
	note F_, 3
	octave 4
	rest 5
	note G_, 3
	octave 5
	rest 1
	note D#, 2
	rest 2
	note C_, 3
	octave 4
	rest 5
	note A#, 3
	octave 5
	rest 1
	note F#, 4
	note D#, 3
	octave 4
	rest 5
	note F#, 3
	octave 5
	rest 1
	note D#, 4
	octave 4
	note B_, 3
	octave 5
	rest 5
	note C#, 3
	rest 1
	note A#, 4
	note F#, 3
	octave 4
	rest 5
	note G#, 3
	octave 5
	rest 1
	note F_, 4
	note C#, 3
	octave 4
	rest 3
	note F#, 2
	note C#, 2
	octave 3
	note F#, 2
	octave 4
	note C#, 6
	note F#, 4
	note C#, 3
	octave 5
	rest 1
	note C#, 3
	octave 4
	rest 5
	note G#, 4
	octave 3
	note A_, 3
	octave 4
	rest 1
	note A_, 3
	rest 5
	note E_, 4
	note E_, 3
	rest 1
	note B_, 3
	rest 5
	note G#, 4
	octave 3
	note B_, 3
	octave 4
	rest 1
	note B_, 3
	rest 5
	note F#, 4
	octave 3
	note A_, 3
	octave 5
	rest 1
	note E_, 3
	octave 4
	rest 5
	note A_, 4
	octave 3
	note B_, 3
	octave 5
	rest 1
	note F#, 3
	octave 4
	rest 5
	note B_, 4
	note C#, 3
	octave 5
	rest 1
	note C#, 3
	octave 4
	rest 5
	note G#, 4
	note C#, 2
	note C#, 2
	octave 3
	note G#, 2
	octave 4
	note C#, 6
	note C#, 4
	rest 2
	note G#, 3
	octave 5
	rest 1
	note E_, 4
	note C#, 3
	octave 4
	rest 5
	note E_, 3
	octave 5
	rest 1
	note C#, 4
	octave 4
	note A_, 3
	rest 5
	note G#, 3
	octave 5
	rest 1
	note E_, 4
	octave 4
	note B_, 3
	rest 5
	note F#, 3
	octave 5
	rest 1
	note F#, 4
	octave 4
	note B_, 3
	rest 5
	note A_, 3
	octave 5
	rest 1
	note A_, 4
	note E_, 3
	octave 3
	rest 3
	note B_, 2
	note B_, 2
	note B_, 4
	octave 2
	rest 4
	note B_, 4
	sound_loop 0, .main_loop
	octave 3
	note C#, 2
	note C#, 2
	rest 2
	note C#, 2
	note C#, 2
	rest 2
	note C#, 2
	octave 2
	note C#, 2
	rest 2
	note C#, 2
	note C#, 2
	rest 2
	note C_, 4
	octave 1
	note A#, 4
	octave 4
	rest 16
	rest 16
	note A_, 16
	sound_ret

Music_SugarSweetNightmare_Ch3:
	stereo_panning TRUE, FALSE
	note_type 12, 1, 3
	transpose 1, 0
	octave 6
	note C#, 2
	note D#, 2
	note E_, 6
	note D#, 2
	note C#, 4
	note C#, 2
	note D#, 2
	note E_, 6
	note F#, 2
	note G#, 4
	note E_, 2
	note F#, 2
	note G#, 6
	note F#, 2
	note E_, 4
	note G#, 2
	note A_, 2
	note B_, 4
	note A_, 4
	note G#, 4
	note A_, 2
	note G#, 2
	note F#, 2
	note E_, 12
	note G#, 4
	note F#, 6
	note F#, 4
	note G#, 2
	note B_, 4
.main_loop
	octave 7
	note C#, 16
	rest 14
	octave 4
	rest 2
	note B_, 2
	octave 5
	note C#, 2
	note D_, 2
	note A_, 4
	note G#, 4
	note E_, 4
	note G#, 4
	note F#, 10
	octave 4
	note B_, 2
	octave 5
	note C#, 2
	note D_, 2
	note A_, 4
	note G#, 4
	note E_, 4
	note G#, 4
	note F#, 10
	octave 4
	note B_, 2
	octave 5
	note C#, 2
	note D_, 2
	note A_, 4
	note G#, 4
	note E_, 4
	note G#, 4
	note F#, 10
	octave 4
	note B_, 2
	octave 5
	note C#, 2
	note D_, 2
	note A_, 4
	note G#, 4
	note E_, 4
	note G#, 4
	note F#, 10
	octave 4
	note B_, 2
	note B_, 2
	octave 5
	rest 2
	note B_, 2
	note B_, 2
	octave 6
	note C#, 2
	note D_, 2
	note F#, 4
	note E_, 4
	note D_, 4
	note E_, 6
	octave 4
	note B_, 2
	note B_, 2
	octave 5
	rest 2
	note B_, 2
	note B_, 2
	octave 6
	note C#, 2
	note D_, 2
	note F#, 4
	note A_, 4
	note G#, 4
	note E_, 6
	octave 4
	note B_, 2
	note B_, 2
	octave 5
	rest 2
	note B_, 2
	note B_, 2
	octave 6
	note C#, 2
	note D_, 2
	note F#, 4
	note E_, 4
	note D_, 4
	note E_, 6
	note A_, 2
	note G#, 2
	note A_, 2
	note G#, 4
	note E_, 2
	note F#, 8
	octave 4
	rest 12
	note B_, 2
	note B_, 2
	octave 5
	rest 2
	note B_, 2
	note B_, 2
	octave 6
	note C#, 2
	note D_, 2
	note F#, 4
	note E_, 4
	note D_, 4
	note E_, 6
	octave 4
	note B_, 2
	note B_, 2
	octave 5
	rest 2
	note B_, 2
	note B_, 2
	octave 6
	note C#, 2
	note D_, 2
	note F#, 4
	note A_, 4
	note G#, 4
	note E_, 6
	octave 4
	note B_, 2
	note B_, 2
	octave 5
	rest 2
	note B_, 2
	note B_, 2
	octave 6
	note C#, 2
	note D_, 2
	note F#, 4
	note E_, 4
	note D_, 4
	note E_, 6
	note A_, 2
	note G#, 2
	note A_, 2
	note G#, 4
	note E_, 2
	note F#, 8
	rest 4
	note D_, 4
	note E_, 4
	note F_, 6
	note E_, 4
	note F_, 2
	note G_, 4
	note F_, 6
	rest 2
	note F_, 4
	note G_, 4
	note A_, 6
	note A_, 4
	octave 7
	note C_, 2
	octave 6
	note A#, 2
	note A_, 8
	rest 2
	note D#, 4
	note F_, 4
	note F#, 6
	note F_, 4
	note F#, 2
	note G#, 4
	note F#, 6
	rest 2
	note F#, 4
	note G#, 4
	note A#, 6
	note A#, 4
	octave 7
	note C#, 2
	octave 6
	note B_, 4
	note A#, 6
	note G#, 12
	rest 8
	note C#, 2
	note D#, 2
	note E_, 6
	note D#, 2
	note C#, 4
	note C#, 2
	note D#, 2
	note E_, 6
	note F#, 2
	note G#, 4
	note E_, 2
	note F#, 2
	note G#, 6
	note F#, 2
	note E_, 4
	note G#, 2
	note A_, 2
	note B_, 4
	note A_, 4
	note G#, 4
	note A_, 2
	note G#, 2
	note F#, 2
	note E_, 12
	note G#, 4
	note F#, 4
	note E_, 4
	note D#, 4
	note F#, 4
	note A_, 10
	note G#, 2
	note F#, 2
	note G#, 12
	note C#, 2
	note D#, 2
	note E_, 6
	note D#, 2
	note C#, 4
	note C#, 2
	note D#, 2
	note E_, 6
	note F#, 2
	note G#, 4
	note E_, 2
	note F#, 2
	note G#, 6
	note F#, 2
	note E_, 4
	note G#, 2
	note A_, 2
	note B_, 4
	note A_, 4
	note G#, 4
	note A_, 2
	note G#, 2
	note F#, 2
	note E_, 12
	note G#, 4
	note F#, 6
	note F#, 4
	note G#, 2
	note B_, 4
	sound_loop 0, .main_loop
; loop-return
	octave 7
	note C#, 16
	rest 8
	octave 5
	note C#, 4
	octave 4
	note B_, 4
	note B_, 2
	octave 5
	note C#, 2
	note D_, 2
	note A_, 4
	note G#, 4
	note E_, 4
	note G#, 4
	note F#, 16
	rest 16
	rest 16
	sound_ret
